<!doctype html>
<?xml version="1.0" encoding="utf-8"?>
<!-- Generator: Adobe Illustrator 16.0.0, SVG Export Plug-In . SVG Version: 6.00 Build 0)  -->
<!DOCTYPE svg PUBLIC "-//W3C//DTD SVG 1.1//EN" "http://www.w3.org/Graphics/SVG/1.1/DTD/svg11.dtd">
<svg version="1.1" id="_x35_00px" xmlns="http://www.w3.org/2000/svg" xmlns:xlink="http://www.w3.org/1999/xlink" x="0px" y="0px"
	 width="270px" height="162px" viewBox="0 0 270 162" enable-background="new 0 0 270 162" xml:space="preserve">

  <defs>
    <filter id="dropGlow">
      <feGaussianBlur in="SourceAlpha" stdDeviation="5" />
    </filter>
  </defs>

  <path style="opacity: .4; filter: url(#dropGlow)" fill="#000000" d="M235.677,79.639c-1.521-4.187-3.681-7.832-6.47-10.941c-2.792-3.107-6.217-5.548-10.275-7.326
	c-2.792-3.107-6.217-5.548-10.275-7.326c-4.062-1.775-8.627-2.664-13.699-2.664c-4.062,0-7.836,0.636-11.322,1.903
	c-3.49,1.27-6.727,2.95-9.704,5.043c-2.981,2.093-5.774,4.537-8.373,7.326c-2.603,2.792-5.106,5.646-7.517,8.562
	c-2.539-3.044-5.107-5.928-7.707-8.658c-2.602-2.727-5.394-5.138-8.373-7.23c-2.981-2.093-6.217-3.773-9.703-5.043
	c-3.491-1.267-7.326-1.903-11.513-1.903c-5.075,0-9.642,0.922-13.7,2.759c-4.062,1.84-7.487,4.314-10.275,7.421
	c-2.719,3.028-4.801,6.601-6.254,10.709c-1.215-2.773-2.76-5.253-4.638-7.44c-2.513-2.922-5.596-5.251-9.248-6.987
	c-3.655-1.734-7.857-2.604-12.605-2.604c-3.836,0-7.261,0.572-10.275,1.712c-3.014,1.144-5.846,3.038-8.494,5.686l-0.274-0.274
	l3.836-21.784h39.595V31.877H45.117l-9.453,53.021h17.537c1.918-2.648,3.973-4.59,6.165-5.823c2.192-1.233,5.022-1.85,8.495-1.85
	c2.648,0,4.977,0.458,6.987,1.37c2.008,0.914,3.744,2.192,5.206,3.836c1.46,1.645,2.556,3.562,3.288,5.754
	c0.73,2.191,1.096,4.521,1.096,6.987c0,2.376-0.39,4.683-1.165,6.919c-0.777,2.238-1.873,4.201-3.288,5.891
	c-1.417,1.691-3.151,3.062-5.207,4.11c-2.055,1.052-4.362,1.575-6.918,1.575c-4.384,0-7.994-1.301-10.824-3.904
	c-2.832-2.603-4.476-6.097-4.932-10.48H32.65c0.09,5.023,1.117,9.433,3.083,13.222c1.963,3.791,4.589,6.966,7.878,9.521
	c3.288,2.56,7.056,4.453,11.303,5.687c4.248,1.233,8.7,1.851,13.358,1.851c4.84,0.09,9.407-0.709,13.701-2.397
	c4.292-1.688,8.06-4.086,11.303-7.192c3.241-3.104,5.823-6.781,7.741-11.029c0.047-0.104,0.087-0.213,0.134-0.317
	c1.502,3.882,3.588,7.259,6.275,10.118c2.917,3.109,6.404,5.584,10.466,7.421c4.059,1.841,8.688,2.76,13.891,2.76
	c4.188,0,7.959-0.601,11.322-1.808c3.359-1.204,6.47-2.789,9.324-4.758c2.854-1.965,5.547-4.248,8.086-6.852
	c2.537-2.598,5.14-5.295,7.803-8.087c2.408,2.792,4.947,5.489,7.611,8.087c2.664,2.604,5.484,4.887,8.467,6.852
	c2.979,1.969,6.186,3.554,9.61,4.758c3.425,1.207,7.103,1.808,11.036,1.808c5.072,0,9.672-0.919,13.796-2.76
	c4.121-1.837,7.578-4.376,10.37-7.61c2.789-3.234,4.948-7.009,6.471-11.322c1.521-4.312,2.283-8.942,2.283-13.892
	C237.961,88.393,237.199,83.825,235.677,79.639z M151.762,99.714c-1.904,1.841-3.935,3.49-6.09,4.947
	c-2.158,1.46-4.441,2.664-6.852,3.614c-2.41,0.953-4.821,1.429-7.229,1.429c-4.695,0-8.373-1.457-11.037-4.377
	c-2.664-2.917-3.996-6.66-3.996-11.228c0-4.187,1.299-7.959,3.901-11.322c2.599-3.359,6.119-5.042,10.561-5.042
	c2.409,0,4.82,0.541,7.231,1.617c2.408,1.079,4.726,2.444,6.944,4.09c2.219,1.649,4.345,3.459,6.375,5.424
	c2.027,1.969,3.807,3.775,5.328,5.423C155.377,96.068,153.664,97.876,151.762,99.714z M216.268,105.137
	c-2.539,3.045-6.154,4.567-10.846,4.567c-2.664,0-5.171-0.443-7.518-1.332c-2.348-0.888-4.6-2.062-6.756-3.521
	c-2.157-1.457-4.186-3.107-6.088-4.947c-1.902-1.838-3.682-3.711-5.328-5.614c1.521-1.646,3.234-3.454,5.139-5.423
	c1.902-1.965,3.9-3.773,5.992-5.424c2.095-1.646,4.312-3.011,6.66-4.09c2.347-1.076,4.787-1.617,7.326-1.617
	c4.691,0,8.402,1.587,11.133,4.757c2.727,3.172,4.091,6.979,4.091,11.417C220.073,98.352,218.805,102.093,216.268,105.137z"/>
<linearGradient id="SVGID_1_" gradientUnits="userSpaceOnUse" x1="135.3062" y1="31.877" x2="135.3062" y2="129.5698">
	<stop  offset="0" style="stop-color:#FAFAFA"/>
	<stop  offset="1" style="stop-color:#B4B4B4"/>
</linearGradient>
<path fill="url(#SVGID_1_)" d="M235.677,79.639c-1.521-4.187-3.681-7.832-6.47-10.941c-2.792-3.107-6.217-5.548-10.275-7.326
	c-4.062-1.775-8.627-2.664-13.699-2.664c-4.062,0-7.836,0.636-11.322,1.903c-3.49,1.27-6.727,2.95-9.704,5.043
	c-2.981,2.093-5.774,4.537-8.373,7.326c-2.603,2.792-5.106,5.646-7.517,8.562c-2.539-3.044-5.107-5.928-7.707-8.658
	c-2.602-2.727-5.394-5.138-8.373-7.23c-2.981-2.093-6.217-3.773-9.703-5.043c-3.491-1.267-7.326-1.903-11.513-1.903
	c-5.075,0-9.642,0.922-13.7,2.759c-4.062,1.84-7.487,4.314-10.275,7.421c-2.719,3.028-4.801,6.601-6.254,10.709
	c-1.215-2.773-2.76-5.253-4.638-7.44c-2.513-2.922-5.596-5.251-9.248-6.987c-3.655-1.734-7.857-2.604-12.605-2.604
	c-3.836,0-7.261,0.572-10.275,1.712c-3.014,1.144-5.846,3.038-8.494,5.686l-0.274-0.274l3.836-21.784h39.595V31.877H45.117
	l-9.453,53.021h17.537c1.918-2.648,3.973-4.59,6.165-5.823c2.192-1.233,5.022-1.85,8.495-1.85c2.648,0,4.977,0.458,6.987,1.37
	c2.008,0.914,3.744,2.192,5.206,3.836c1.46,1.645,2.556,3.562,3.288,5.754c0.73,2.191,1.096,4.521,1.096,6.987
	c0,2.376-0.39,4.683-1.165,6.919c-0.777,2.238-1.873,4.201-3.288,5.891c-1.417,1.691-3.151,3.062-5.207,4.11
	c-2.055,1.052-4.362,1.575-6.918,1.575c-4.384,0-7.994-1.301-10.824-3.904c-2.832-2.603-4.476-6.097-4.932-10.48H32.65
	c0.09,5.023,1.117,9.433,3.083,13.222c1.963,3.791,4.589,6.966,7.878,9.521c3.288,2.56,7.056,4.453,11.303,5.687
	c4.248,1.233,8.7,1.851,13.358,1.851c4.84,0.09,9.407-0.709,13.701-2.397c4.292-1.688,8.06-4.086,11.303-7.192
	c3.241-3.104,5.823-6.781,7.741-11.029c0.047-0.104,0.087-0.213,0.134-0.317c1.502,3.882,3.588,7.259,6.275,10.118
	c2.917,3.109,6.404,5.584,10.466,7.421c4.059,1.841,8.688,2.76,13.891,2.76c4.188,0,7.959-0.601,11.322-1.808
	c3.359-1.204,6.47-2.789,9.324-4.758c2.854-1.965,5.547-4.248,8.086-6.852c2.537-2.598,5.14-5.295,7.803-8.087
	c2.408,2.792,4.947,5.489,7.611,8.087c2.664,2.604,5.484,4.887,8.467,6.852c2.979,1.969,6.186,3.554,9.61,4.758
	c3.425,1.207,7.103,1.808,11.036,1.808c5.072,0,9.672-0.919,13.796-2.76c4.121-1.837,7.578-4.376,10.37-7.61
	c2.789-3.234,4.948-7.009,6.471-11.322c1.521-4.312,2.283-8.942,2.283-13.892C237.961,88.393,237.199,83.825,235.677,79.639z
	 M151.762,99.714c-1.904,1.841-3.935,3.49-6.09,4.947c-2.158,1.46-4.441,2.664-6.852,3.614c-2.41,0.953-4.821,1.429-7.229,1.429
	c-4.695,0-8.373-1.457-11.037-4.377c-2.664-2.917-3.996-6.66-3.996-11.228c0-4.187,1.299-7.959,3.901-11.322
	c2.599-3.359,6.119-5.042,10.561-5.042c2.409,0,4.82,0.541,7.231,1.617c2.408,1.079,4.726,2.444,6.944,4.09
	c2.219,1.649,4.345,3.459,6.375,5.424c2.027,1.969,3.807,3.775,5.328,5.423C155.377,96.068,153.664,97.876,151.762,99.714z
	 M216.268,105.137c-2.539,3.045-6.154,4.567-10.846,4.567c-2.664,0-5.171-0.443-7.518-1.332c-2.348-0.888-4.6-2.062-6.756-3.521
	c-2.157-1.457-4.186-3.107-6.088-4.947c-1.902-1.838-3.682-3.711-5.328-5.614c1.521-1.646,3.234-3.454,5.139-5.423
	c1.902-1.965,3.9-3.773,5.992-5.424c2.095-1.646,4.312-3.011,6.66-4.09c2.347-1.076,4.787-1.617,7.326-1.617
	c4.691,0,8.402,1.587,11.133,4.757c2.727,3.172,4.091,6.979,4.091,11.417C220.073,98.352,218.805,102.093,216.268,105.137z"/>
</svg>
