<?xml version="1.0" encoding="utf-8"?>
<!-- Generator: Adobe Illustrator 16.0.0, SVG Export Plug-In . SVG Version: 6.00 Build 0)  -->
<!DOCTYPE svg PUBLIC "-//W3C//DTD SVG 1.1//EN" "http://www.w3.org/Graphics/SVG/1.1/DTD/svg11.dtd">
<svg version="1.1" id="Layer_1" xmlns="http://www.w3.org/2000/svg" xmlns:xlink="http://www.w3.org/1999/xlink" x="0px" y="0px"
  width="512px" height="512px" viewBox="0 0 512 512" enable-background="new 0 0 512 512" xml:space="preserve">
 
  <defs>
    <filter id="dropGlow">
      <feGaussianBlur in="SourceAlpha" stdDeviation="5" />
    </filter>
  </defs>

 <path opacity="0.8" style="filter: url(#dropGlow)" fill="#000000" enable-background="new    " d="M266.977,63.385c120.502,0,193.949,70.367,193.949,157.168
    c0,86.803-73.447,156.221-193.949,156.221c-14.682,0-29.025-4.246-42.896-6.235c-56.1,70.915-144.57,56.964-144.57,56.964
    c62.486-29.576,61.224-78.564,50.114-85.09c-49.051-28.82-78.546-72.705-78.546-121.859
    C51.078,133.752,146.476,63.385,266.977,63.385z"/>
  <linearGradient id="SVGID_1_" gradientUnits="userSpaceOnUse" x1="-301.998" y1="1684.3848" x2="-301.9982" y2="2049.6143" gradientTransform="matrix(1 0 0 1 558 -1611)">
    <stop  offset="0" style="stop-color:#FAFAFA"/>
    <stop  offset="1" style="stop-color:#B4B4B4"/>
  </linearGradient>
  <path fill="url(#SVGID_1_)" d="M266.977,73.385c120.502,0,193.949,70.367,193.949,157.168c0,86.803-73.447,156.221-193.949,156.221
    c-14.682,0-29.025-4.246-42.896-6.235c-56.1,70.915-144.57,56.964-144.57,56.964c62.486-29.576,61.224-78.564,50.114-85.09
    c-49.051-28.82-78.546-72.705-78.546-121.859C51.078,143.752,146.476,73.385,266.977,73.385z"/>
</svg>
