<?xml version="1.0" encoding="utf-8"?>
<!-- Generator: Adobe Illustrator 16.0.0, SVG Export Plug-In . SVG Version: 6.00 Build 0)  -->
<!DOCTYPE svg PUBLIC "-//W3C//DTD SVG 1.1//EN" "http://www.w3.org/Graphics/SVG/1.1/DTD/svg11.dtd">
<svg version="1.1" id="Layer_1" xmlns="http://www.w3.org/2000/svg" xmlns:xlink="http://www.w3.org/1999/xlink" x="0px" y="0px"
	 width="512px" height="512px" viewBox="0 0 512 512" enable-background="new 0 0 512 512" xml:space="preserve">

  <defs>
    <filter id="dropGlow">
      <feGaussianBlur in="SourceAlpha" stdDeviation="5" />
    </filter>
  </defs>

<path opacity="0.8" style="filter: url(#dropGlow)" fill="#000000" d="M443.733,118H68.267c-9.425,0-17.066,7.641-17.066,17.066v17.066c0,9.426,7.642,17.067,17.066,17.067h375.467
	c9.434,0,17.066-7.641,17.066-17.066v-17.066C460.801,125.641,453.167,118,443.733,118z M443.733,220.4H68.267
	c-9.425,0-17.066,7.642-17.066,17.066v17.067c0,9.434,7.642,17.066,17.066,17.066h375.467c9.434,0,17.066-7.634,17.066-17.066
	v-17.067C460.801,228.042,453.167,220.4,443.733,220.4z M443.733,322.8H68.267c-9.425,0-17.066,7.634-17.066,17.066v17.065
	c0,9.435,7.642,17.067,17.066,17.067h375.467c9.434,0,17.066-7.634,17.066-17.067v-17.065
	C460.801,330.434,453.167,322.8,443.733,322.8z"/>
<linearGradient id="SVGID_1_" gradientUnits="userSpaceOnUse" x1="-301.9995" y1="1739" x2="-301.9995" y2="1994.999" gradientTransform="matrix(1 0 0 1 558 -1611)">
	<stop  offset="0" style="stop-color:#FAFAFA"/>
	<stop  offset="1" style="stop-color:#B4B4B4"/>
</linearGradient>
<path fill="url(#SVGID_1_)" d="M443.733,128H68.267c-9.425,0-17.066,7.641-17.066,17.066v17.066c0,9.426,7.642,17.067,17.066,17.067
	h375.467c9.434,0,17.066-7.641,17.066-17.066v-17.066C460.801,135.641,453.167,128,443.733,128z M443.733,230.4H68.267
	c-9.425,0-17.066,7.642-17.066,17.066v17.067c0,9.434,7.642,17.066,17.066,17.066h375.467c9.434,0,17.066-7.634,17.066-17.066
	v-17.067C460.801,238.042,453.167,230.4,443.733,230.4z M443.733,332.8H68.267c-9.425,0-17.066,7.634-17.066,17.066v17.065
	c0,9.435,7.642,17.067,17.066,17.067h375.467c9.434,0,17.066-7.634,17.066-17.067v-17.065
	C460.801,340.434,453.167,332.8,443.733,332.8z"/>
</svg>
