<?xml version="1.0" encoding="utf-8"?>
<!-- Generator: Adobe Illustrator 16.0.0, SVG Export Plug-In . SVG Version: 6.00 Build 0)  -->
<!DOCTYPE svg PUBLIC "-//W3C//DTD SVG 1.1//EN" "http://www.w3.org/Graphics/SVG/1.1/DTD/svg11.dtd">
<svg version="1.1" id="Layer_1" xmlns="http://www.w3.org/2000/svg" xmlns:xlink="http://www.w3.org/1999/xlink" x="0px" y="0px"
	 width="512px" height="512px" viewBox="0 0 512 512" enable-background="new 0 0 512 512" xml:space="preserve">

  <defs>
    <filter id="dropGlow">
      <feGaussianBlur in="SourceAlpha" stdDeviation="5" />
    </filter>
  </defs>

<path opacity="0.8" style="filter: url(#dropGlow)" fill="#000000" d="M110.318,301.357L51.2,357.982h71.976V430.8l58.134-58.772C150.918,356.451,126.032,331.667,110.318,301.357z
	 M401.683,301.357L401.683,301.357c-1.389,2.684-2.854,5.317-4.386,7.912c-0.141,0.237-0.282,0.477-0.422,0.715
	c-0.434,0.725-0.872,1.447-1.316,2.162c-0.155,0.254-0.315,0.506-0.476,0.759c-0.455,0.729-0.916,1.458-1.383,2.181
	c-0.081,0.123-0.163,0.249-0.244,0.371c-1.55,2.375-3.156,4.705-4.822,6.988c-0.194,0.269-0.39,0.537-0.587,0.805
	c-0.467,0.635-0.938,1.262-1.415,1.889c-0.229,0.301-0.46,0.601-0.689,0.899c-0.478,0.618-0.952,1.233-1.439,1.847
	c-0.209,0.262-0.422,0.521-0.632,0.783c-1.621,2.016-3.288,3.992-5.001,5.928c-0.294,0.332-0.587,0.666-0.883,0.996
	c-0.468,0.52-0.942,1.035-1.416,1.551c-0.332,0.359-0.665,0.717-1,1.074c-0.465,0.494-0.931,0.986-1.4,1.479
	c-0.358,0.373-0.724,0.742-1.087,1.113c-0.458,0.472-0.916,0.943-1.383,1.406c-0.757,0.752-1.521,1.5-2.292,2.238
	c-0.433,0.416-0.873,0.82-1.312,1.232c-0.435,0.407-0.868,0.813-1.309,1.217c-0.443,0.404-0.887,0.805-1.333,1.205
	c-0.452,0.408-0.909,0.81-1.362,1.211c-0.438,0.384-0.875,0.764-1.316,1.145c-0.503,0.432-1.013,0.859-1.52,1.283
	c-0.4,0.336-0.8,0.676-1.203,1.008c-0.871,0.715-1.746,1.42-2.628,2.117c-0.347,0.271-0.693,0.537-1.04,0.807
	c-0.606,0.469-1.213,0.936-1.82,1.396c-0.405,0.307-0.817,0.608-1.226,0.909c-0.569,0.42-1.143,0.841-1.716,1.252
	c-0.414,0.297-0.822,0.591-1.235,0.883c-0.62,0.438-1.249,0.869-1.876,1.298c-0.362,0.25-0.725,0.502-1.092,0.752
	c-0.97,0.647-1.945,1.295-2.927,1.926c-0.231,0.148-0.466,0.289-0.697,0.438c-0.789,0.501-1.583,0.996-2.38,1.482
	c-0.379,0.23-0.758,0.457-1.141,0.687c-0.669,0.401-1.34,0.799-2.016,1.19c-0.398,0.232-0.801,0.463-1.203,0.689
	c-0.697,0.398-1.399,0.789-2.104,1.18c-0.362,0.199-0.724,0.402-1.089,0.6c-1.033,0.556-2.072,1.107-3.118,1.646
	c-0.017,0.011-0.035,0.019-0.051,0.027l58.129,58.769v-72.816h71.976L401.683,301.357z M400,225.983c0-79.529-64.471-144-144-144
	c-79.529,0-144,64.471-144,144s64.471,144,144,144C335.529,369.982,400,305.512,400,225.983z M256,321.982c-53.019,0-96-42.98-96-96
	s42.981-96,96-96c53.019,0,96,42.981,96,96S309.02,321.982,256,321.982z M256,145.717c-44.331,0-80.267,35.938-80.267,80.267
	c0,44.331,35.937,80.268,80.267,80.268s80.267-35.938,80.267-80.268C336.267,181.654,300.331,145.717,256,145.717z"/>
<linearGradient id="SVGID_1_" gradientUnits="userSpaceOnUse" x1="-301.9995" y1="1702.9824" x2="-301.9995" y2="2051.8008" gradientTransform="matrix(1 0 0 1 558 -1611)">
	<stop  offset="0" style="stop-color:#FAFAFA"/>
	<stop  offset="1" style="stop-color:#B4B4B4"/>
</linearGradient>
<path fill="url(#SVGID_1_)" d="M110.318,311.357L51.2,367.982h71.976V440.8l58.134-58.772
	C150.918,366.451,126.032,341.667,110.318,311.357z M401.683,311.357L401.683,311.357c-1.389,2.684-2.854,5.317-4.386,7.912
	c-0.141,0.237-0.282,0.477-0.422,0.715c-0.434,0.725-0.872,1.447-1.316,2.162c-0.155,0.254-0.315,0.506-0.476,0.759
	c-0.455,0.729-0.916,1.458-1.383,2.181c-0.081,0.123-0.163,0.249-0.244,0.371c-1.55,2.375-3.156,4.705-4.822,6.988
	c-0.194,0.269-0.39,0.537-0.587,0.805c-0.467,0.635-0.938,1.262-1.415,1.889c-0.229,0.301-0.46,0.601-0.689,0.899
	c-0.478,0.618-0.952,1.233-1.439,1.847c-0.209,0.262-0.422,0.521-0.632,0.783c-1.621,2.016-3.288,3.992-5.001,5.928
	c-0.294,0.332-0.587,0.666-0.883,0.996c-0.468,0.52-0.942,1.035-1.416,1.551c-0.332,0.359-0.665,0.717-1,1.074
	c-0.465,0.494-0.931,0.986-1.4,1.479c-0.358,0.373-0.724,0.742-1.087,1.113c-0.458,0.472-0.916,0.943-1.383,1.406
	c-0.757,0.752-1.521,1.5-2.292,2.238c-0.433,0.416-0.873,0.82-1.312,1.232c-0.435,0.407-0.868,0.813-1.309,1.217
	c-0.443,0.404-0.887,0.805-1.333,1.205c-0.452,0.408-0.909,0.81-1.362,1.211c-0.438,0.384-0.875,0.764-1.316,1.145
	c-0.503,0.432-1.013,0.859-1.52,1.283c-0.4,0.336-0.8,0.676-1.203,1.008c-0.871,0.715-1.746,1.42-2.628,2.117
	c-0.347,0.271-0.693,0.537-1.04,0.807c-0.606,0.469-1.213,0.936-1.82,1.396c-0.405,0.307-0.817,0.608-1.226,0.909
	c-0.569,0.42-1.143,0.841-1.716,1.252c-0.414,0.297-0.822,0.591-1.235,0.883c-0.62,0.438-1.249,0.869-1.876,1.298
	c-0.362,0.25-0.725,0.502-1.092,0.752c-0.97,0.647-1.945,1.295-2.927,1.926c-0.231,0.148-0.466,0.289-0.697,0.438
	c-0.789,0.501-1.583,0.996-2.38,1.482c-0.379,0.23-0.758,0.457-1.141,0.687c-0.669,0.401-1.34,0.799-2.016,1.19
	c-0.398,0.232-0.801,0.463-1.203,0.689c-0.697,0.398-1.399,0.789-2.104,1.18c-0.362,0.199-0.724,0.402-1.089,0.6
	c-1.033,0.556-2.072,1.107-3.118,1.646c-0.017,0.011-0.035,0.019-0.051,0.027l58.129,58.769v-72.816h71.976L401.683,311.357z
	 M400,235.983c0-79.529-64.471-144-144-144c-79.529,0-144,64.471-144,144s64.471,144,144,144
	C335.529,379.982,400,315.512,400,235.983z M256,331.982c-53.019,0-96-42.98-96-96s42.981-96,96-96c53.019,0,96,42.981,96,96
	S309.02,331.982,256,331.982z M256,155.717c-44.331,0-80.267,35.938-80.267,80.267c0,44.331,35.937,80.268,80.267,80.268
	s80.267-35.938,80.267-80.268C336.267,191.654,300.331,155.717,256,155.717z"/>
</svg>
