<?xml version="1.0" encoding="utf-8"?>
<!-- Generator: Adobe Illustrator 16.0.0, SVG Export Plug-In . SVG Version: 6.00 Build 0)  -->
<!DOCTYPE svg PUBLIC "-//W3C//DTD SVG 1.1//EN" "http://www.w3.org/Graphics/SVG/1.1/DTD/svg11.dtd">
<svg version="1.1" id="Layer_1" xmlns="http://www.w3.org/2000/svg" xmlns:xlink="http://www.w3.org/1999/xlink" x="0px" y="0px"
	 width="512px" height="512px" viewBox="0 0 512 512" enable-background="new 0 0 512 512" xml:space="preserve">
	<path fill="#010101" d="M301.813,206.767c0,15.401-5.672,36.56-17.008,63.469c-11.339,26.914-25.864,40.367-43.573,40.367
		c-10.098,0-17.919-3.726-23.463-11.179c-5.547-7.452-8.317-17.222-8.317-29.312c0-20.035,6.207-40.778,18.621-62.227
		c12.414-21.445,27.226-32.169,44.442-32.169c8.938,0,16.053,2.981,21.353,8.943C299.163,190.62,301.813,197.991,301.813,206.767
		L301.813,206.767z M225.342,347.119c19.696,0,36.579-6.373,50.65-19.128c7.777-7.118,14.812-16.644,21.104-28.567
		c-0.167,1.657-0.291,3.19-0.372,4.596c-0.086,1.409-0.124,2.694-0.124,3.851c0,9.109,4.097,17.971,12.289,26.58
		c8.193,8.613,19.901,12.917,35.133,12.917c29.297,0,55.366-13.453,78.209-40.366c22.842-26.91,34.263-59.161,34.263-96.756
		c0-47.695-18.043-85.951-54.126-114.766c-34.263-27.325-77.464-40.988-129.604-40.988c-64.057,0-116.611,19.958-157.659,59.867
		c-39.066,37.758-58.595,83.8-58.595,138.117c0,48.525,15.642,90.507,46.925,125.944c37.739,42.727,90.953,64.09,159.646,64.09
		c29.46,0,57.889-4.763,85.285-14.283c27.393-9.521,52.841-23.39,76.347-41.609l-18.125-27.821l-5.958,4.223
		c-15.891,11.264-31.284,19.958-46.181,26.083c-27.312,11.594-56.694,17.389-88.141,17.389c-46.018,0-84.998-12.502-116.941-37.51
		c-36.086-28.319-54.125-66.656-54.125-115.015c0-43.553,15.394-80.896,46.181-112.033c34.096-34.444,79.283-51.67,135.562-51.67
		c30.621,0,58.18,6.296,82.679,18.879c39.062,19.873,58.595,52.582,58.595,98.123c0,30.803-7.162,55.52-21.477,74.15
		c-14.319,18.631-28.596,27.946-42.829,27.946c-7.285,0-12.581-2.192-15.89-6.583c-3.313-4.386-4.966-9.066-4.966-14.035
		c0-3.144,0.535-6.831,1.614-11.054c1.074-4.224,2.854-10.721,5.338-19.501l31.78-107.81h-46.926l-8.938,31.3
		c-2.482-9.603-7.366-18.134-14.648-25.586c-9.602-9.603-23.09-14.408-40.47-14.408c-29.631,0-54.622,13.084-74.981,39.249
		c-20.359,26.169-30.539,54.239-30.539,84.212c0,25.835,6.661,45.956,19.987,60.364
		C188.635,339.915,205.313,347.119,225.342,347.119L225.342,347.119z"/>
<linearGradient id="SVGID_1_" gradientUnits="userSpaceOnUse" x1="-860" y1="204" x2="-860" y2="-246.0005" gradientTransform="matrix(1 0 0 -1 1116 234)">
	<stop  offset="0" style="stop-color:#FAFAFA"/>
	<stop  offset="1" style="stop-color:#B4B4B4"/>
</linearGradient>
	<path fill="url(#SVGID_1_)" d="M301.813,196.767c0,15.401-5.672,36.56-17.008,63.469c-11.339,26.914-25.864,40.367-43.573,40.367
		c-10.098,0-17.919-3.726-23.463-11.179c-5.547-7.452-8.317-17.222-8.317-29.312c0-20.035,6.207-40.778,18.621-62.227
		c12.414-21.445,27.226-32.169,44.442-32.169c8.938,0,16.053,2.981,21.353,8.943C299.163,180.62,301.813,187.991,301.813,196.767
		L301.813,196.767z M225.342,337.119c19.696,0,36.579-6.373,50.65-19.128c7.777-7.118,14.812-16.644,21.104-28.567
		c-0.167,1.657-0.291,3.19-0.372,4.596c-0.086,1.409-0.124,2.694-0.124,3.851c0,9.109,4.097,17.971,12.289,26.58
		c8.193,8.613,19.901,12.917,35.133,12.917c29.297,0,55.366-13.453,78.209-40.366c22.842-26.91,34.263-59.161,34.263-96.756
		c0-47.695-18.043-85.951-54.126-114.766c-34.263-27.325-77.464-40.988-129.604-40.988c-64.057,0-116.611,19.958-157.659,59.867
		c-39.066,37.758-58.595,83.8-58.595,138.117c0,48.525,15.642,90.507,46.925,125.944c37.739,42.727,90.953,64.09,159.646,64.09
		c29.46,0,57.889-4.763,85.285-14.283c27.393-9.521,52.841-23.39,76.347-41.609l-18.125-27.821l-5.958,4.223
		c-15.891,11.264-31.284,19.958-46.181,26.083c-27.312,11.594-56.694,17.389-88.141,17.389c-46.018,0-84.998-12.502-116.941-37.51
		c-36.086-28.319-54.125-66.656-54.125-115.015c0-43.553,15.394-80.896,46.181-112.033c34.096-34.444,79.283-51.67,135.562-51.67
		c30.621,0,58.18,6.296,82.679,18.879c39.062,19.873,58.595,52.582,58.595,98.123c0,30.803-7.162,55.52-21.477,74.15
		c-14.319,18.631-28.596,27.946-42.829,27.946c-7.285,0-12.581-2.192-15.89-6.583c-3.313-4.386-4.966-9.066-4.966-14.035
		c0-3.144,0.535-6.831,1.614-11.054c1.074-4.224,2.854-10.721,5.338-19.501l31.78-107.81h-46.926l-8.938,31.3
		c-2.482-9.603-7.366-18.134-14.648-25.586c-9.602-9.603-23.09-14.408-40.47-14.408c-29.631,0-54.622,13.084-74.981,39.249
		c-20.359,26.169-30.539,54.239-30.539,84.212c0,25.835,6.661,45.956,19.987,60.364
		C188.635,329.915,205.313,337.119,225.342,337.119L225.342,337.119z"/>
</svg>
