<?xml version="1.0" encoding="utf-8"?>
<!-- Generator: Adobe Illustrator 16.0.0, SVG Export Plug-In . SVG Version: 6.00 Build 0)  -->
<!DOCTYPE svg PUBLIC "-//W3C//DTD SVG 1.1//EN" "http://www.w3.org/Graphics/SVG/1.1/DTD/svg11.dtd">
<svg version="1.1" id="Layer_1" xmlns="http://www.w3.org/2000/svg" xmlns:xlink="http://www.w3.org/1999/xlink" x="0px" y="0px"
	 width="512px" height="512px" viewBox="0 0 512 512" enable-background="new 0 0 512 512" xml:space="preserve">

  <defs>
    <filter id="dropGlow">
      <feGaussianBlur in="SourceAlpha" stdDeviation="5" />
    </filter>
  </defs>

<path opacity="0.8" style="filter: url(#dropGlow)" fill="#000000" d="M312.5,135.5h64l-0.011-80.005h-71.903
	c-58.721,0-103.263,44.445-103.263,88.891L201.5,195.5h-65v80h65v180h89v-180h66v-80h-66v-37
	C290.5,144.655,304.888,135.5,312.5,135.5"/>
<linearGradient id="SVGID_1_" gradientUnits="userSpaceOnUse" x1="-860" y1="204" x2="-860" y2="-246.0005" gradientTransform="matrix(1 0 0 -1 1116 234)">
	<stop  offset="0" style="stop-color:#FAFAFA"/>
	<stop  offset="1" style="stop-color:#B4B4B4"/>
</linearGradient>
<path fill="url(#SVGID_1_)" d="M312.5,145.5h64l-0.011-80.005h-71.903c-58.721,0-103.263,44.445-103.263,88.891L201.5,205.5h-65v80
	h65v180h89v-180h66v-80h-66v-37C290.5,154.655,304.888,145.5,312.5,145.5"/>
</svg>
