<?xml version="1.0" encoding="utf-8"?>
<!-- Generator: Adobe Illustrator 16.0.0, SVG Export Plug-In . SVG Version: 6.00 Build 0)  -->
<!DOCTYPE svg PUBLIC "-//W3C//DTD SVG 1.1//EN" "http://www.w3.org/Graphics/SVG/1.1/DTD/svg11.dtd">
<svg version="1.1" id="Layer_1" xmlns="http://www.w3.org/2000/svg" xmlns:xlink="http://www.w3.org/1999/xlink" x="0px" y="0px"
	 width="512px" height="512px" viewBox="0 0 512 512" enable-background="new 0 0 512 512" xml:space="preserve">

  <defs>
    <filter id="dropGlow">
      <feGaussianBlur in="SourceAlpha" stdDeviation="5" />
    </filter>
  </defs>

<path opacity="0.8" style="filter: url(#dropGlow)" fill="#000000" d="M344,83.358c-66.398,0-88,48.8-88,48.8v-0.05c0,0-21.6-48.8-88-48.8s-97.333,42.933-97.333,94.133
	c0,26.4,20.8,60.266,42.133,84.266C133.847,285.385,256,403.842,256,408.643v0.05c0-4.8,122.154-123.259,143.2-146.935
	c21.334-24,42.134-57.867,42.134-84.267C441.334,126.292,410.4,83.358,344,83.358z"/>
<linearGradient id="SVGID_1_" gradientUnits="userSpaceOnUse" x1="-301.9995" y1="1704.3076" x2="-301.9995" y2="2029.6924" gradientTransform="matrix(1 0 0 1 558 -1611)">
	<stop  offset="0" style="stop-color:#FAFAFA"/>
	<stop  offset="1" style="stop-color:#B4B4B4"/>
</linearGradient>
<path fill="url(#SVGID_1_)" d="M344,93.358c-66.398,0-88,48.8-88,48.8v-0.05c0,0-21.6-48.8-88-48.8s-97.333,42.933-97.333,94.133
	c0,26.4,20.8,60.266,42.133,84.266C133.847,295.385,256,413.842,256,418.643v0.05c0-4.8,122.154-123.259,143.2-146.935
	c21.334-24,42.134-57.867,42.134-84.267C441.334,136.292,410.4,93.358,344,93.358z"/>
</svg>
