<?xml version="1.0" encoding="utf-8"?>
<!-- Generator: Adobe Illustrator 16.0.0, SVG Export Plug-In . SVG Version: 6.00 Build 0)  -->
<!DOCTYPE svg PUBLIC "-//W3C//DTD SVG 1.1//EN" "http://www.w3.org/Graphics/SVG/1.1/DTD/svg11.dtd">
<svg version="1.1" id="Layer_1" xmlns="http://www.w3.org/2000/svg" xmlns:xlink="http://www.w3.org/1999/xlink" x="0px" y="0px"
  width="512px" height="512px" viewBox="0 0 512 512" enable-background="new 0 0 512 512" xml:space="preserve">

  <defs>
    <filter id="dropGlow">
      <feGaussianBlur in="SourceAlpha" stdDeviation="5" />
    </filter>
  </defs>

  <path opacity="0.8" style="filter: url(#dropGlow)" fill="#000000" enable-background="new    " d="M460.256,136.761c-1.382-0.795-4.165,2.722-4.6,3.271
    c-32.413,40.858-89.402,54.183-137.524,35.784c-12.507-4.779-23.416-11.932-34.047-19.948
    c-10.474-7.895-22.296-13.892-34.691-18.102c-23.823-8.089-50.027-8.146-74.163-1.397c-26.549,7.422-49.73,24.342-66.759,45.81
    c-5.107,6.438-9.656,13.655-12.377,21.459c-0.234,0.672-1.922,4.817-0.527,5.622c1.379,0.797,4.165-2.719,4.6-3.267
    c32.41-40.858,89.401-54.179,137.523-35.784c12.508,4.781,23.417,11.932,34.048,19.947c10.473,7.896,22.293,13.892,34.69,18.102
    c23.817,8.092,50.025,8.146,74.159,1.399c26.55-7.424,49.734-24.344,66.763-45.813c5.106-6.438,9.653-13.655,12.377-21.458
    C459.963,141.713,461.65,137.569,460.256,136.761z M437.672,212.605c-1.379-0.798-4.164,2.719-4.6,3.267
    c-32.412,40.858-89.401,54.182-137.526,35.784c-12.504-4.778-23.413-11.932-34.044-19.949
    c-10.474-7.895-22.296-13.892-34.691-18.103c-23.824-8.088-50.027-8.145-74.163-1.397c-26.55,7.421-49.731,24.342-66.763,45.811
    c-5.106,6.438-9.652,13.653-12.374,21.459c-0.233,0.674-1.924,4.815-0.527,5.621c1.378,0.801,4.163-2.718,4.598-3.268
    c32.413-40.858,89.401-54.18,137.526-35.784c12.505,4.781,23.416,11.933,34.044,19.948c10.476,7.895,22.297,13.895,34.693,18.104
    c23.82,8.088,50.026,8.146,74.16,1.396c26.551-7.42,49.731-24.346,66.763-45.813c5.106-6.438,9.655-13.654,12.377-21.458
    C437.379,217.554,439.066,213.411,437.672,212.605z M416.434,289.139c-1.38-0.801-4.162,2.717-4.598,3.268
    c-32.413,40.857-89.402,54.183-137.525,35.781c-12.506-4.776-23.414-11.934-34.044-19.944
    c-10.476-7.896-22.296-13.896-34.694-18.105c-23.823-8.088-50.026-8.145-74.16-1.396c-26.549,7.422-49.731,24.34-66.762,45.812
    c-5.107,6.441-9.656,13.656-12.375,21.459c-0.236,0.675-1.924,4.818-0.529,5.623c1.379,0.794,4.165-2.723,4.6-3.268
    c32.41-40.859,89.402-54.185,137.525-35.787c12.505,4.783,23.414,11.938,34.045,19.95c10.473,7.895,22.296,13.888,34.691,18.101
    c23.822,8.095,50.025,8.146,74.162,1.4c26.551-7.427,49.73-24.345,66.763-45.812c5.105-6.438,9.655-13.653,12.375-21.458
    C416.141,294.088,417.831,289.943,416.434,289.139z"/>
  <linearGradient id="SVGID_1_" gradientUnits="userSpaceOnUse" x1="-301.9995" y1="1752.4883" x2="-301.9995" y2="1987.9102" gradientTransform="matrix(1 0 0 1 558 -1611)">
    <stop  offset="0" style="stop-color:#FAFAFA"/>
    <stop  offset="1" style="stop-color:#B4B4B4"/>
  </linearGradient>
  <path fill="url(#SVGID_1_)" d="M460.256,146.761c-1.382-0.795-4.165,2.722-4.6,3.271c-32.413,40.858-89.402,54.183-137.524,35.784
    c-12.507-4.779-23.416-11.932-34.047-19.948c-10.474-7.895-22.296-13.892-34.691-18.102c-23.823-8.089-50.027-8.146-74.163-1.397
    c-26.549,7.422-49.73,24.342-66.759,45.81c-5.107,6.438-9.656,13.655-12.377,21.459c-0.234,0.672-1.922,4.817-0.527,5.622
    c1.379,0.797,4.165-2.719,4.6-3.267c32.41-40.858,89.401-54.179,137.523-35.784c12.508,4.781,23.417,11.932,34.048,19.947
    c10.473,7.896,22.293,13.892,34.69,18.102c23.817,8.092,50.025,8.146,74.159,1.399c26.55-7.424,49.734-24.344,66.763-45.813
    c5.106-6.438,9.653-13.655,12.377-21.458C459.963,151.713,461.65,147.569,460.256,146.761z M437.672,222.605
    c-1.379-0.798-4.164,2.719-4.6,3.267c-32.412,40.858-89.401,54.182-137.526,35.784c-12.504-4.778-23.413-11.932-34.044-19.949
    c-10.474-7.895-22.296-13.892-34.691-18.103c-23.824-8.088-50.027-8.145-74.163-1.397c-26.55,7.421-49.731,24.342-66.763,45.811
    c-5.106,6.438-9.652,13.653-12.374,21.459c-0.233,0.674-1.924,4.815-0.527,5.621c1.378,0.801,4.163-2.718,4.598-3.268
    c32.413-40.858,89.401-54.18,137.526-35.784c12.505,4.781,23.416,11.933,34.044,19.948c10.476,7.895,22.297,13.895,34.693,18.104
    c23.82,8.088,50.026,8.146,74.16,1.396c26.551-7.42,49.731-24.346,66.763-45.813c5.106-6.438,9.655-13.654,12.377-21.458
    C437.379,227.554,439.066,223.411,437.672,222.605z M416.434,299.139c-1.38-0.801-4.162,2.717-4.598,3.268
    c-32.413,40.857-89.402,54.183-137.525,35.781c-12.506-4.776-23.414-11.934-34.044-19.944
    c-10.476-7.896-22.296-13.896-34.694-18.105c-23.823-8.088-50.026-8.145-74.16-1.396c-26.549,7.422-49.731,24.34-66.762,45.812
    c-5.107,6.441-9.656,13.656-12.375,21.459c-0.236,0.675-1.924,4.818-0.529,5.623c1.379,0.794,4.165-2.723,4.6-3.268
    c32.41-40.859,89.402-54.185,137.525-35.787c12.505,4.783,23.414,11.938,34.045,19.95c10.473,7.895,22.296,13.888,34.691,18.101
    c23.822,8.095,50.025,8.146,74.162,1.4c26.551-7.427,49.73-24.345,66.763-45.812c5.105-6.438,9.655-13.653,12.375-21.458
    C416.141,304.088,417.831,299.943,416.434,299.139z"/>
</svg>
