<?xml version="1.0" encoding="utf-8"?>
<!-- Generator: Adobe Illustrator 16.0.0, SVG Export Plug-In . SVG Version: 6.00 Build 0)  -->
<!DOCTYPE svg PUBLIC "-//W3C//DTD SVG 1.1//EN" "http://www.w3.org/Graphics/SVG/1.1/DTD/svg11.dtd">
<svg version="1.1" id="Layer_1" xmlns="http://www.w3.org/2000/svg" xmlns:xlink="http://www.w3.org/1999/xlink" x="0px" y="0px"
	 width="512px" height="512px" viewBox="0 0 512 512" enable-background="new 0 0 512 512" xml:space="preserve">

  <defs>
    <filter id="dropGlow">
      <feGaussianBlur in="SourceAlpha" stdDeviation="5" />
    </filter>
  </defs>

<path opacity="0.8" style="filter: url(#dropGlow)" fill="#000000" d="M153.425,143.514c4.799-4.799,9.856-9.181,15.118-13.167l-57.544-57.543l-28.284,28.284l57.544,57.543
	C144.244,153.37,148.626,148.312,153.425,143.514z M112.339,226.062H31v40h81.344C110.505,252.797,110.503,239.328,112.339,226.062z
	 M371.615,158.581l57.582-57.582l-28.284-28.284l-57.595,57.594c5.277,3.996,10.354,8.39,15.168,13.205
	C363.271,148.297,367.64,153.337,371.615,158.581z M275.938,102.427V21h-40v81.432C249.203,100.593,262.672,100.592,275.938,102.427
	z M236.062,389.673V471h40v-81.355C262.798,391.492,249.329,391.5,236.062,389.673z M358.486,348.574
	c-4.802,4.799-9.855,9.182-15.117,13.167l57.544,57.544l28.284-28.284l-57.544-57.544
	C367.668,338.719,363.285,343.775,358.486,348.574z M399.573,226.062c1.835,13.266,1.834,26.734-0.005,40H481v-40H399.573z
	 M140.297,333.508l-57.494,57.493l28.284,28.284l57.506-57.506c-5.28-3.996-10.354-8.392-15.168-13.205
	C148.642,343.791,144.272,338.751,140.297,333.508z M256,146.062c-55.229,0-100,44.771-100,100s44.771,100,100,100
	c55.229,0,100-44.771,100-100S311.229,146.062,256,146.062z"/>
<linearGradient id="SVGID_1_" gradientUnits="userSpaceOnUse" x1="-302.0005" y1="1814" x2="-302.0005" y2="1364" gradientTransform="matrix(1 0 0 -1 558 1845)">
	<stop  offset="0" style="stop-color:#FAFAFA"/>
	<stop  offset="1" style="stop-color:#B4B4B4"/>
</linearGradient>
<path fill="url(#SVGID_1_)" d="M153.425,153.514c4.799-4.799,9.856-9.181,15.118-13.167l-57.544-57.543l-28.284,28.284
	l57.544,57.543C144.244,163.37,148.626,158.312,153.425,153.514z M112.339,236.062H31v40h81.344
	C110.505,262.797,110.503,249.328,112.339,236.062z M371.615,168.581l57.582-57.582l-28.284-28.284l-57.595,57.594
	c5.277,3.996,10.354,8.39,15.168,13.205C363.271,158.297,367.64,163.337,371.615,168.581z M275.938,112.427V31h-40v81.432
	C249.203,110.593,262.672,110.592,275.938,112.427z M236.062,399.673V481h40v-81.355C262.798,401.492,249.329,401.5,236.062,399.673
	z M358.486,358.574c-4.802,4.799-9.855,9.182-15.117,13.167l57.544,57.544l28.284-28.284l-57.544-57.544
	C367.668,348.719,363.285,353.775,358.486,358.574z M399.573,236.062c1.835,13.266,1.834,26.734-0.005,40H481v-40H399.573z
	 M140.297,343.508l-57.494,57.493l28.284,28.284l57.506-57.506c-5.28-3.996-10.354-8.392-15.168-13.205
	C148.642,353.791,144.272,348.751,140.297,343.508z M256,156.062c-55.229,0-100,44.771-100,100s44.771,100,100,100
	c55.229,0,100-44.771,100-100S311.229,156.062,256,156.062z"/>
</svg>
