<?xml version="1.0" encoding="utf-8"?>
<!-- Generator: Adobe Illustrator 16.0.0, SVG Export Plug-In . SVG Version: 6.00 Build 0)  -->
<!DOCTYPE svg PUBLIC "-//W3C//DTD SVG 1.1//EN" "http://www.w3.org/Graphics/SVG/1.1/DTD/svg11.dtd">
<svg version="1.1" id="Layer_1" xmlns="http://www.w3.org/2000/svg" xmlns:xlink="http://www.w3.org/1999/xlink" x="0px" y="0px"
	 width="512px" height="512px" viewBox="0 0 512 512" enable-background="new 0 0 512 512" xml:space="preserve">

  <defs>
    <filter id="dropGlow">
      <feGaussianBlur in="SourceAlpha" stdDeviation="5" />
    </filter>
  </defs>

<path opacity="0.8" style="filter: url(#dropGlow)" fill="#000000" d="M471,175h-73v74h-18v-74h-74v-18h74V84h18v73h73V175z M266.666,366.971
	c0,40.682-39.381,81.137-110.681,81.137c-62.541,0-115.313-25.447-115.313-66.125c0-41.305,48.137-81.137,110.678-81.137
	c6.812,0,13.058-0.188,19.524-0.188c-8.559-8.326-15.33-18.531-15.33-31.114c0-7.464,2.384-14.651,5.717-21.034
	c-3.398,0.245-6.87,0.315-10.442,0.315c-51.368,0-85.787-36.764-85.787-82.044C65.034,122.47,112.555,84,163.047,84
	c28.156,0,112.626,0,112.626,0l-25.205,19H214.76c23.686,9,36.305,36.552,36.305,64.882c0,23.802-13.182,44.124-31.809,58.678
	c-18.173,14.198-21.617,20.126-21.617,32.198c0,10.302,19.467,27.817,29.645,35.024
	C257.041,314.825,266.666,334.354,266.666,366.971z M210.581,169.925c-5.011-38.103-32.597-68.676-61.606-69.548
	c-29.012-0.867-48.468,28.298-43.459,66.406c5.007,38.099,32.584,69.694,61.604,70.561
	C196.125,238.211,215.585,208.032,210.581,169.925z M237.712,371.564c0-3.963-0.484-7.842-1.379-11.613
	c-4.747-18.598-21.581-27.818-45.047-44.139c-8.537-2.762-17.937-4.385-28.025-4.492c-43.229-0.467-81.953,26.35-81.953,58.568
	c0,32.871,31.22,60.234,74.449,60.234C216.53,430.123,237.712,404.438,237.712,371.564z"/>
<linearGradient id="SVGID_1_" gradientUnits="userSpaceOnUse" x1="-860" y1="204" x2="-860" y2="-246.0005" gradientTransform="matrix(1 0 0 -1 1116 234)">
	<stop  offset="0" style="stop-color:#FAFAFA"/>
	<stop  offset="1" style="stop-color:#B4B4B4"/>
</linearGradient>
<path fill="url(#SVGID_1_)" d="M471,165h-73v74h-18v-74h-74v-18h74V74h18v73h73V165z M266.666,356.971
	c0,40.682-39.381,81.137-110.681,81.137c-62.541,0-115.313-25.447-115.313-66.125c0-41.305,48.137-81.137,110.678-81.137
	c6.812,0,13.058-0.188,19.524-0.188c-8.559-8.326-15.33-18.531-15.33-31.114c0-7.463,2.384-14.651,5.717-21.034
	c-3.398,0.245-6.87,0.315-10.442,0.315c-51.368,0-85.787-36.764-85.787-82.044C65.034,112.47,112.555,74,163.047,74
	c28.156,0,112.626,0,112.626,0l-25.205,19H214.76c23.686,9,36.305,36.552,36.305,64.882c0,23.802-13.182,44.124-31.809,58.678
	c-18.173,14.198-21.617,20.126-21.617,32.198c0,10.302,19.467,27.818,29.645,35.025
	C257.041,304.825,266.666,324.354,266.666,356.971z M210.581,159.925c-5.011-38.103-32.597-68.676-61.606-69.548
	c-29.012-0.867-48.468,28.298-43.459,66.406c5.007,38.099,32.584,69.694,61.604,70.561
	C196.125,228.211,215.585,198.032,210.581,159.925z M237.712,361.564c0-3.963-0.484-7.842-1.379-11.613
	c-4.747-18.598-21.581-27.818-45.047-44.139c-8.537-2.762-17.937-4.385-28.025-4.492c-43.229-0.467-81.953,26.35-81.953,58.568
	c0,32.871,31.22,60.234,74.449,60.234C216.53,420.123,237.712,394.438,237.712,361.564z"/>
</svg>
