<?xml version="1.0" encoding="utf-8"?>
<!-- Generator: Adobe Illustrator 16.0.0, SVG Export Plug-In . SVG Version: 6.00 Build 0)  -->
<!DOCTYPE svg PUBLIC "-//W3C//DTD SVG 1.1//EN" "http://www.w3.org/Graphics/SVG/1.1/DTD/svg11.dtd">
<svg version="1.1" id="Layer_1" xmlns="http://www.w3.org/2000/svg" xmlns:xlink="http://www.w3.org/1999/xlink" x="0px" y="0px"
	 width="512px" height="512px" viewBox="0 0 512 512" enable-background="new 0 0 512 512" xml:space="preserve">

  <defs>
    <filter id="dropGlow">
      <feGaussianBlur in="SourceAlpha" stdDeviation="5" />
    </filter>
  </defs>

<path opacity="0.8" style="filter: url(#dropGlow)" fill="#000000" d="M400.412,270.4c0-4.969,15.588-10.363,15.588-27.805c0-7.732-4.267-14.793-7.282-17.812
	C396.934,212.991,326.159,214.02,304,214.02c0-12.152,0.461-34.658,8.146-39.951c8.153-5.616,35.8-54.292-9.633-97.29
	c-6.643-6.287-18.178-6.759-30.396-6.759c0,20.717-8.036,38.366-8.036,57.612c0,17.752-28.501,40.811-44.739,57.034
	c-25.805,25.784-43.551,45.354-88.939,45.354H111.2c-8.683,0-15.2,6.606-15.2,15.29V375.9c0,8.685,7.039,15.725,15.722,15.725
	h18.934c59.274,0.168,202.304,59.881,250.871,11.35c11.728-11.733-2.315-23.678,7.203-32.662c9.008-9,19.562-9.518,19.737-22.477
	c0-19.463-8.091-19.039-8.091-26.178c0-8.051,15.622-8.5,15.622-29.285C416,270.229,400.412,276.621,400.412,270.4z"/>
<linearGradient id="SVGID_1_" gradientUnits="userSpaceOnUse" x1="-302.0005" y1="1691.0195" x2="-302.0005" y2="2042.9795" gradientTransform="matrix(1 0 0 1 558 -1611)">
	<stop  offset="0" style="stop-color:#FAFAFA"/>
	<stop  offset="1" style="stop-color:#B4B4B4"/>
</linearGradient>
<path fill="url(#SVGID_1_)" d="M400.412,280.4c0-4.969,15.588-10.363,15.588-27.805c0-7.732-4.267-14.793-7.282-17.812
	C396.934,222.991,326.159,224.02,304,224.02c0-12.152,0.461-34.658,8.146-39.951c8.153-5.616,35.8-54.292-9.633-97.29
	c-6.643-6.287-18.178-6.759-30.396-6.759c0,20.717-8.036,38.366-8.036,57.612c0,17.752-28.501,40.811-44.739,57.034
	c-25.805,25.784-43.551,45.354-88.939,45.354H111.2c-8.683,0-15.2,6.606-15.2,15.29V385.9c0,8.685,7.039,15.725,15.722,15.725
	h18.934c59.274,0.168,202.304,59.881,250.871,11.35c11.728-11.733-2.315-23.678,7.203-32.662c9.008-9,19.562-9.518,19.737-22.477
	c0-19.463-8.091-19.039-8.091-26.178c0-8.051,15.622-8.5,15.622-29.285C416,280.229,400.412,286.621,400.412,280.4z"/>
</svg>
