<?xml version="1.0" encoding="utf-8"?>
<!-- Generator: Adobe Illustrator 16.0.0, SVG Export Plug-In . SVG Version: 6.00 Build 0)  -->
<!DOCTYPE svg PUBLIC "-//W3C//DTD SVG 1.1//EN" "http://www.w3.org/Graphics/SVG/1.1/DTD/svg11.dtd">
<svg version="1.1" id="Layer_1" xmlns="http://www.w3.org/2000/svg" xmlns:xlink="http://www.w3.org/1999/xlink" x="0px" y="0px"
	 width="512px" height="512px" viewBox="0 0 512 512" enable-background="new 0 0 512 512" xml:space="preserve">

  <defs>
    <filter id="dropGlow">
      <feGaussianBlur in="SourceAlpha" stdDeviation="5" />
    </filter>
  </defs>

<path opacity="0.8" style="filter: url(#dropGlow)" fill="#000000" d="M150.689,278.605c18.778,0,34-15.222,34-34c0-18.777-15.222-34-34-34c-18.777,0-34,15.223-34,34
	C116.689,263.383,131.912,278.605,150.689,278.605z M446.476,151.649L162.107,75.453c-10.242-2.745-20.771,3.333-23.515,13.577
	l-14.631,54.601l16.566-0.002l12.277-45.821c1.145-4.268,5.53-6.8,9.798-5.657l275.096,73.712c4.269,1.143,6.801,5.531,5.657,9.798
	c0,0-27.428,102.356-43.279,161.512l0.035,56.318c3.501-4.951,4.082-9.854,3.208-6.593l56.732-211.731
	C462.797,164.921,456.719,154.394,446.476,151.649z M364.89,159.606H70.49c-10.604,0-19.2,8.596-19.2,19.2v219.2
	c0,10.604,8.596,19.2,19.2,19.2H364.89c10.604,0,19.2-8.597,19.2-19.2v-219.2C384.09,168.202,375.493,159.606,364.89,159.606z
	 M368.09,393.206c0,4.418-3.584,8-8,8H75.289c-4.418,0-8-3.582-8-8v-209.6c0-4.418,3.582-8,8-8H360.09c4.416,0,8,3.582,8,8V393.206z
	 M171.089,353.206l-49.6-49.601l-39.8,40.2c0,20.552,0,36.601,0,36.601c0,3.533,2.866,6.399,6.4,6.399H348.09
	c3.534,0,5.589-2.866,5.589-6.399l0.018-43.926l-83.207-82.875L171.089,353.206z"/>
<linearGradient id="SVGID_1_" gradientUnits="userSpaceOnUse" x1="-301.9995" y1="1695.7939" x2="-301.9995" y2="2038.2061" gradientTransform="matrix(1 0 0 1 558 -1611)">
	<stop  offset="0" style="stop-color:#FAFAFA"/>
	<stop  offset="1" style="stop-color:#B4B4B4"/>
</linearGradient>
<path fill="url(#SVGID_1_)" d="M150.689,288.605c18.778,0,34-15.222,34-34c0-18.777-15.222-34-34-34c-18.777,0-34,15.223-34,34
	C116.689,273.383,131.912,288.605,150.689,288.605z M446.476,161.649L162.107,85.453c-10.242-2.745-20.771,3.333-23.515,13.577
	l-14.631,54.601l16.566-0.002l12.277-45.821c1.145-4.268,5.53-6.8,9.798-5.657l275.096,73.712c4.269,1.143,6.801,5.531,5.657,9.798
	c0,0-27.428,102.356-43.279,161.512l0.035,56.318c3.501-4.951,4.082-9.854,3.208-6.593l56.732-211.731
	C462.797,174.921,456.719,164.394,446.476,161.649z M364.89,169.606H70.49c-10.604,0-19.2,8.596-19.2,19.2v219.2
	c0,10.604,8.596,19.2,19.2,19.2H364.89c10.604,0,19.2-8.597,19.2-19.2v-219.2C384.09,178.202,375.493,169.606,364.89,169.606z
	 M368.09,403.206c0,4.418-3.584,8-8,8H75.289c-4.418,0-8-3.582-8-8v-209.6c0-4.418,3.582-8,8-8H360.09c4.416,0,8,3.582,8,8V403.206z
	 M171.089,363.206l-49.6-49.601l-39.8,40.2c0,20.552,0,36.601,0,36.601c0,3.533,2.866,6.399,6.4,6.399H348.09
	c3.534,0,5.589-2.866,5.589-6.399l0.018-43.926l-83.207-82.875L171.089,363.206z"/>
</svg>
