<?xml version="1.0" encoding="utf-8"?>
<!-- Generator: Adobe Illustrator 16.0.0, SVG Export Plug-In . SVG Version: 6.00 Build 0)  -->
<!DOCTYPE svg PUBLIC "-//W3C//DTD SVG 1.1//EN" "http://www.w3.org/Graphics/SVG/1.1/DTD/svg11.dtd">
<svg version="1.1" id="Layer_1" xmlns="http://www.w3.org/2000/svg" xmlns:xlink="http://www.w3.org/1999/xlink" x="0px" y="0px"
	 width="512px" height="512px" viewBox="0 0 512 512" enable-background="new 0 0 512 512" xml:space="preserve">

  <defs>
    <filter id="dropGlow">
      <feGaussianBlur in="SourceAlpha" stdDeviation="5" />
    </filter>
  </defs>

<path opacity="0.8" style="filter: url(#dropGlow)" fill="#000000" d="M460,415.144L342.355,297.498c17.817-27.953,28.145-61.144,28.145-96.748
	c0-99.55-80.701-180.25-180.251-180.25C90.702,20.5,10,101.2,10,200.75s80.702,180.251,180.249,180.251
	c35.119,0,67.885-10.054,95.597-27.426l117.86,117.862L460,415.144z M190.249,327.412c-69.953,0-126.662-56.708-126.662-126.663
	c0-69.953,56.709-126.662,126.662-126.662c69.955,0,126.662,56.709,126.662,126.662
	C316.911,270.704,260.204,327.412,190.249,327.412z"/>
<linearGradient id="SVGID_1_" gradientUnits="userSpaceOnUse" x1="533.5" y1="93" x2="533.5" y2="-357.938" gradientTransform="matrix(1 0 0 -1 -298.5 123.5)">
	<stop  offset="0" style="stop-color:#FAFAFA"/>
	<stop  offset="1" style="stop-color:#B4B4B4"/>
</linearGradient>
<path fill="url(#SVGID_1_)" d="M460,425.144L342.355,307.498c17.817-27.953,28.145-61.144,28.145-96.748
	c0-99.55-80.701-180.25-180.251-180.25C90.702,30.5,10,111.2,10,210.75s80.702,180.251,180.249,180.251
	c35.119,0,67.885-10.054,95.597-27.426l117.86,117.862L460,425.144z M190.249,337.412c-69.953,0-126.662-56.708-126.662-126.663
	c0-69.953,56.709-126.662,126.662-126.662c69.955,0,126.662,56.709,126.662,126.662
	C316.911,280.704,260.204,337.412,190.249,337.412z"/>
</svg>
