<?xml version="1.0" encoding="utf-8"?>
<!-- Generator: Adobe Illustrator 16.0.0, SVG Export Plug-In . SVG Version: 6.00 Build 0)  -->
<!DOCTYPE svg PUBLIC "-//W3C//DTD SVG 1.1//EN" "http://www.w3.org/Graphics/SVG/1.1/DTD/svg11.dtd">
<svg version="1.1" id="Layer_1" xmlns="http://www.w3.org/2000/svg" xmlns:xlink="http://www.w3.org/1999/xlink" x="0px" y="0px"
	 width="512px" height="512px" viewBox="0 0 512 512" enable-background="new 0 0 512 512" xml:space="preserve">

  <defs>
    <filter id="dropGlow">
      <feGaussianBlur in="SourceAlpha" stdDeviation="5" />
    </filter>
  </defs>

<path opacity="0.8" style="filter: url(#dropGlow)" fill="#000000"  d="M316.903,215.945c6.664,0,23.097,0,23.097,0v61.534l123.192-99.99L340,77.5v61.53c0,0-6.767,0-23.097,0
  c-45.195,0-130.896,36.525-130.896,138.449C186.008,278.944,228.985,215.945,316.903,215.945z M370.795,323.627H139.809v-153.83
  h61.602l15.394-30.767H109.013l-0.205,215.47l292.786-0.109v-84.605l-30.799,23.074V323.627z"/>
<linearGradient id="SVGID_1_" gradientUnits="userSpaceOnUse" x1="-860" y1="204" x2="-860" y2="-246.0005" gradientTransform="matrix(1 0 0 -1 1116 234)">
	<stop  offset="0" style="stop-color:#FAFAFA"/>
	<stop  offset="1" style="stop-color:#B4B4B4"/>
</linearGradient>
<path fill="url(#SVGID_1_)" d="M316.903,225.945c6.664,0,23.097,0,23.097,0v61.534l123.192-99.99L340,87.5v61.53
  c0,0-6.767,0-23.097,0c-45.195,0-130.896,36.525-130.896,138.449C186.008,288.944,228.985,225.945,316.903,225.945z
   M370.795,333.627H139.809v-153.83h61.602l15.394-30.767H109.013l-0.205,215.47l292.786-0.109v-84.605l-30.799,23.074V333.627z"/>
</svg>
