<?xml version="1.0" encoding="utf-8"?>
<!-- Generator: Adobe Illustrator 16.0.0, SVG Export Plug-In . SVG Version: 6.00 Build 0)  -->
<!DOCTYPE svg PUBLIC "-//W3C//DTD SVG 1.1//EN" "http://www.w3.org/Graphics/SVG/1.1/DTD/svg11.dtd">
<svg version="1.1" id="Layer_1" xmlns="http://www.w3.org/2000/svg" xmlns:xlink="http://www.w3.org/1999/xlink" x="0px" y="0px"
	 width="512px" height="512px" viewBox="0 0 512 512" enable-background="new 0 0 512 512" xml:space="preserve">

  <defs>
    <filter id="dropGlow">
      <feGaussianBlur in="SourceAlpha" stdDeviation="5" />
    </filter>
  </defs>

<path opacity="0.8" style="filter: url(#dropGlow)" fill="#000000" d="M456.523,134.43c-14.718,6.528-30.536,10.94-47.138,12.923c16.943-10.158,29.958-26.242,36.086-45.408
		c-15.859,9.406-33.424,16.236-52.119,19.916c-14.971-15.951-36.302-25.917-59.908-25.917c-45.325,0-82.075,36.747-82.075,82.072
		c0,6.433,0.726,12.697,2.125,18.705c-68.211-3.423-128.688-36.098-169.168-85.754c-7.065,12.122-11.113,26.22-11.113,41.262
		c0,28.475,14.489,53.596,36.512,68.315c-13.454-0.427-26.11-4.119-37.174-10.266c-0.008,0.343-0.008,0.686-0.008,1.033
		c0,39.765,28.292,72.936,65.837,80.478c-6.886,1.875-14.137,2.879-21.623,2.879c-5.289,0-10.43-0.516-15.442-1.473
		c10.445,32.605,40.755,56.337,76.67,56.997c-28.089,22.015-63.479,35.135-101.932,35.135c-6.625,0-13.158-0.388-19.579-1.148
		c36.322,23.288,79.464,36.878,125.813,36.878c150.964,0,233.52-125.063,233.52-233.522c0-3.558-0.081-7.098-0.239-10.619
		C431.606,165.343,445.521,150.889,456.523,134.43z"/>
<linearGradient id="SVGID_1_" gradientUnits="userSpaceOnUse" x1="-860" y1="204" x2="-860" y2="-246.0005" gradientTransform="matrix(1 0 0 -1 1116 234)">
	<stop  offset="0" style="stop-color:#FAFAFA"/>
	<stop  offset="1" style="stop-color:#B4B4B4"/>
</linearGradient>
	<path fill="url(#SVGID_1_)" d="M456.523,124.43c-14.718,6.528-30.536,10.94-47.138,12.923
		c16.943-10.158,29.958-26.242,36.086-45.408c-15.859,9.406-33.424,16.236-52.119,19.916
		c-14.971-15.951-36.302-25.917-59.908-25.917c-45.325,0-82.075,36.747-82.075,82.072c0,6.433,0.726,12.697,2.125,18.705
		c-68.211-3.423-128.688-36.098-169.168-85.754c-7.065,12.122-11.113,26.22-11.113,41.262c0,28.475,14.489,53.596,36.512,68.315
		c-13.454-0.427-26.11-4.119-37.174-10.266c-0.008,0.343-0.008,0.686-0.008,1.033c0,39.765,28.292,72.936,65.837,80.478
		c-6.886,1.875-14.137,2.879-21.623,2.879c-5.289,0-10.43-0.516-15.442-1.473c10.445,32.605,40.755,56.337,76.67,56.997
		c-28.089,22.015-63.479,35.135-101.932,35.135c-6.625,0-13.158-0.388-19.579-1.148c36.322,23.288,79.464,36.878,125.813,36.878
		c150.964,0,233.52-125.063,233.52-233.522c0-3.558-0.081-7.098-0.239-10.619C431.606,155.343,445.521,140.889,456.523,124.43z"/>
</svg>
