<?xml version="1.0" encoding="utf-8"?>
<!-- Generator: Adobe Illustrator 16.0.0, SVG Export Plug-In . SVG Version: 6.00 Build 0)  -->
<!DOCTYPE svg PUBLIC "-//W3C//DTD SVG 1.1//EN" "http://www.w3.org/Graphics/SVG/1.1/DTD/svg11.dtd">
<svg version="1.1" id="Layer_1" xmlns="http://www.w3.org/2000/svg" xmlns:xlink="http://www.w3.org/1999/xlink" x="0px" y="0px"
	 width="512px" height="512px" viewBox="0 0 512 512" enable-background="new 0 0 512 512" xml:space="preserve">

  <defs>
    <filter id="dropGlow">
      <feGaussianBlur in="SourceAlpha" stdDeviation="5" />
    </filter>
  </defs>

<path opacity="0.8" style="filter: url(#dropGlow)" fill="#000000" d="M256,110c-74.559,0-135,60.441-135,135c0,74.559,60.441,135,135,135c74.559,0,135-60.441,135-135
	C391,170.441,330.559,110,256,110z M256,335c-49.706,0-90-40.294-90-90c0-49.705,40.294-90,90-90s90,40.295,90,90
	C346,294.706,305.706,335,256,335z M256,20C131.736,20,31,120.736,31,245c0,124.264,100.736,225,225,225
	c124.264,0,225-100.736,225-225C481,120.736,380.264,20,256,20z M256,425c-99.411,0-180-80.589-180-180S156.589,65,256,65
	s180,80.589,180,180S355.411,425,256,425z M256,200c-24.853,0-45,20.147-45,45c0,24.854,20.147,45,45,45c24.854,0,45-20.146,45-45
	C301,220.147,280.854,200,256,200z"/>
<linearGradient id="SVGID_1_" gradientUnits="userSpaceOnUse" x1="-860" y1="204" x2="-860" y2="-246.0005" gradientTransform="matrix(1 0 0 -1 1116 234)">
	<stop  offset="0" style="stop-color:#FAFAFA"/>
	<stop  offset="1" style="stop-color:#B4B4B4"/>
</linearGradient>
<path fill="url(#SVGID_1_)" d="M256,120c-74.559,0-135,60.441-135,135c0,74.559,60.441,135,135,135c74.559,0,135-60.441,135-135
	C391,180.441,330.559,120,256,120z M256,345c-49.706,0-90-40.294-90-90c0-49.705,40.294-90,90-90s90,40.295,90,90
	C346,304.706,305.706,345,256,345z M256,30C131.736,30,31,130.736,31,255c0,124.264,100.736,225,225,225
	c124.264,0,225-100.736,225-225C481,130.736,380.264,30,256,30z M256,435c-99.411,0-180-80.589-180-180S156.589,75,256,75
	s180,80.589,180,180S355.411,435,256,435z M256,210c-24.853,0-45,20.147-45,45c0,24.854,20.147,45,45,45c24.854,0,45-20.146,45-45
	C301,230.147,280.854,210,256,210z"/>
</svg>
